<svg width="256" height="256" viewBox="0 0 256 256" fill="none" xmlns="http://www.w3.org/2000/svg">
<g clip-path="url(#clip0)">
<circle cx="128.454" cy="128.454" r="128.454" fill="url(#paint0_linear)"/>
<circle cx="128.454" cy="128.454" r="128.454" fill="url(#paint1_radial)"/>
<mask id="mask0" style="mask-type:alpha" maskUnits="userSpaceOnUse" x="0" y="0" width="257" height="257">
<circle cx="128.454" cy="128.454" r="128.454" fill="url(#paint2_linear)"/>
<circle cx="128.454" cy="128.454" r="128.454" fill="url(#paint3_radial)"/>
</mask>
<g mask="url(#mask0)">
<g filter="url(#filter0_f)">
<circle cx="-3.06865" cy="1.38365" r="112.602" fill="#155E63" fill-opacity="0.25"/>
</g>
<g filter="url(#filter1_f)">
<circle cx="139.962" cy="261.655" r="139.962" fill="#155E63" fill-opacity="0.42"/>
</g>
</g>
<path fill-rule="evenodd" clip-rule="evenodd" d="M11.4919 181.636C29.7375 146.048 66.7914 121.693 109.534 121.693C166.219 121.693 212.9 164.529 218.971 219.597C195.751 242.659 163.766 256.908 128.454 256.908C76.4794 256.908 31.7145 226.04 11.4919 181.636Z" fill="url(#paint4_radial)"/>
<path fill-rule="evenodd" clip-rule="evenodd" d="M11.4919 181.636C29.7375 146.048 66.7914 121.693 109.534 121.693C166.219 121.693 212.9 164.529 218.971 219.597C195.751 242.659 163.766 256.908 128.454 256.908C76.4794 256.908 31.7145 226.04 11.4919 181.636Z" fill="url(#paint5_radial)"/>
<path fill-rule="evenodd" clip-rule="evenodd" d="M256.908 128.454C256.908 199.397 199.397 256.908 128.454 256.908C128.454 185.965 185.965 128.454 256.908 128.454Z" fill="url(#paint6_linear)"/>
<path fill-rule="evenodd" clip-rule="evenodd" d="M109.534 1.38361C103.98 55.867 58.7032 98.5976 3.12891 100.148C14.6669 48.8427 56.9033 9.15297 109.534 1.38361Z" fill="url(#paint7_linear)"/>
<path fill-rule="evenodd" clip-rule="evenodd" d="M109.534 1.38361C103.98 55.867 58.7032 98.5976 3.12891 100.148C14.6669 48.8427 56.9033 9.15297 109.534 1.38361Z" fill="url(#paint8_radial)"/>
</g>
<defs>
<filter id="filter0_f" x="-159.619" y="-155.167" width="313.101" height="313.101" filterUnits="userSpaceOnUse" color-interpolation-filters="sRGB">
<feFlood flood-opacity="0" result="BackgroundImageFix"/>
<feBlend mode="normal" in="SourceGraphic" in2="BackgroundImageFix" result="shape"/>
<feGaussianBlur stdDeviation="21.9741" result="effect1_foregroundBlur"/>
</filter>
<filter id="filter1_f" x="-43.9482" y="77.7451" width="367.82" height="367.82" filterUnits="userSpaceOnUse" color-interpolation-filters="sRGB">
<feFlood flood-opacity="0" result="BackgroundImageFix"/>
<feBlend mode="normal" in="SourceGraphic" in2="BackgroundImageFix" result="shape"/>
<feGaussianBlur stdDeviation="21.9741" result="effect1_foregroundBlur"/>
</filter>
<linearGradient id="paint0_linear" x1="69.5691" y1="33.8541" x2="212.898" y2="232.457" gradientUnits="userSpaceOnUse">
<stop stop-color="#66FFA3"/>
<stop offset="0.494374" stop-color="#91EF84"/>
<stop offset="1" stop-color="#CDE862"/>
</linearGradient>
<radialGradient id="paint1_radial" cx="0" cy="0" r="1" gradientUnits="userSpaceOnUse" gradientTransform="translate(128.454 128.454) rotate(90) scale(128.454)">
<stop offset="0.635417" stop-color="white" stop-opacity="0"/>
<stop offset="0.807292" stop-color="#F4FFC6" stop-opacity="0.188235"/>
<stop offset="1" stop-color="#ECFFA0" stop-opacity="0.5"/>
</radialGradient>
<linearGradient id="paint2_linear" x1="69.5691" y1="33.8541" x2="212.898" y2="232.457" gradientUnits="userSpaceOnUse">
<stop stop-color="#66FFA3"/>
<stop offset="0.494374" stop-color="#91EF84"/>
<stop offset="1" stop-color="#CDE862"/>
</linearGradient>
<radialGradient id="paint3_radial" cx="0" cy="0" r="1" gradientUnits="userSpaceOnUse" gradientTransform="translate(128.454 128.454) rotate(90) scale(128.454)">
<stop offset="0.635417" stop-color="white" stop-opacity="0"/>
<stop offset="0.807292" stop-color="#F4FFC6" stop-opacity="0.188235"/>
<stop offset="1" stop-color="#ECFFA0" stop-opacity="0.5"/>
</radialGradient>
<radialGradient id="paint4_radial" cx="0" cy="0" r="1" gradientUnits="userSpaceOnUse" gradientTransform="translate(187.943 230.015) rotate(-157.085) scale(166.126 178.977)">
<stop offset="0.334116" stop-color="#5FBE18"/>
<stop offset="0.640886" stop-color="#9DCC1B"/>
<stop offset="1" stop-color="#C9E135"/>
</radialGradient>
<radialGradient id="paint5_radial" cx="0" cy="0" r="1" gradientUnits="userSpaceOnUse" gradientTransform="translate(111.436 225.842) rotate(87.8737) scale(102.313 119.556)">
<stop offset="0.539181" stop-color="#6EE138" stop-opacity="0"/>
<stop offset="1" stop-color="#A7FAFF" stop-opacity="0.4"/>
</radialGradient>
<linearGradient id="paint6_linear" x1="213.325" y1="157.005" x2="298.128" y2="303.895" gradientUnits="userSpaceOnUse">
<stop stop-color="#C6D51C"/>
<stop offset="1" stop-color="#40B716"/>
</linearGradient>
<linearGradient id="paint7_linear" x1="56.3313" y1="1.38361" x2="56.3313" y2="100.148" gradientUnits="userSpaceOnUse">
<stop stop-color="#BDD31C"/>
<stop offset="1" stop-color="#71DB23"/>
</linearGradient>
<radialGradient id="paint8_radial" cx="0" cy="0" r="1" gradientUnits="userSpaceOnUse" gradientTransform="translate(-3.5426 -12.982) rotate(43.0651) scale(117.75 126.858)">
<stop offset="0.65671" stop-color="#23B14B" stop-opacity="0"/>
<stop offset="0.839391" stop-color="#90E2AE" stop-opacity="0.14"/>
<stop offset="1" stop-color="#D0FFE9" stop-opacity="0.47"/>
</radialGradient>
<clipPath id="clip0">
<rect width="256" height="256" fill="white"/>
</clipPath>
</defs>
</svg>
