<svg width="1040" height="193" viewBox="0 0 1040 193" fill="none" xmlns="http://www.w3.org/2000/svg">
<g clip-path="url(#clip0)">
<path d="M251.059 173V28.3963H275.26V89.2503H343.746V28.3963H367.846V173H343.746V111.945H275.26V173H251.059ZM426.326 176.013C418.761 176.013 412.234 174.573 406.745 171.695C401.255 168.749 397.071 164.799 394.192 159.845C391.38 154.824 389.975 149.301 389.975 143.276C389.975 135.242 391.95 128.548 395.899 123.192C399.916 117.836 406.176 113.719 414.678 110.84C419.565 109.167 425.356 107.761 432.05 106.623C438.812 105.418 448.385 103.945 460.77 102.204C462.377 101.937 464.017 101.702 465.691 101.501C467.431 101.234 469.072 100.966 470.611 100.698L461.975 105.619C461.975 100.531 461.239 96.3801 459.766 93.1667C458.293 89.9533 455.917 87.5767 452.636 86.0369C449.356 84.4971 445.038 83.7273 439.682 83.7273C434.26 83.7273 429.372 84.9658 425.021 87.4428C420.669 89.8528 417.657 93.6688 415.983 98.8906L393.891 91.9616C396.636 82.4553 401.858 75.0243 409.556 69.6686C417.255 64.2459 427.297 61.5346 439.682 61.5346C449.791 61.5346 458.427 63.1748 465.59 66.4551C472.754 69.7355 478.042 74.8234 481.457 81.7189C483.264 85.2001 484.402 88.8152 484.871 92.5642C485.339 96.2462 485.574 100.865 485.574 106.422V173H464.385V149.502L467.9 153.318C464.553 158.607 460.904 162.925 456.954 166.272C453.071 169.552 448.619 171.996 443.599 173.603C438.578 175.209 432.82 176.013 426.326 176.013ZM431.147 156.732C436.301 156.732 440.82 155.828 444.703 154.021C448.653 152.146 451.799 149.837 454.143 147.092C456.553 144.347 458.226 141.569 459.164 138.757C460.168 136.347 460.804 133.602 461.071 130.523C461.406 127.443 461.574 124.096 461.574 120.481V118.472L469.005 120.682L460.268 122.087C451.23 123.493 444.268 124.665 439.381 125.602C434.494 126.539 430.31 127.577 426.829 128.715C422.477 130.322 419.197 132.263 416.987 134.539C414.778 136.749 413.674 139.56 413.674 142.975C413.674 145.652 414.343 148.029 415.682 150.104C417.021 152.18 418.996 153.82 421.607 155.025C424.218 156.163 427.398 156.732 431.147 156.732ZM511.717 173V64.5472H533.107V90.9575L530.496 87.5432C531.902 83.8612 533.743 80.5473 536.019 77.6017C538.295 74.5891 540.939 72.1456 543.952 70.2711C546.563 68.4635 549.475 67.0577 552.688 66.0535C555.902 64.9823 559.216 64.3463 562.63 64.1455C566.111 63.8777 569.492 64.0116 572.772 64.5472V87.1415C569.358 86.1373 565.576 85.8695 561.425 86.3382C557.341 86.7398 553.659 87.8779 550.379 89.7524C547.098 91.493 544.387 93.7692 542.245 96.5809C540.102 99.3257 538.529 102.439 537.525 105.92C536.521 109.401 536.019 113.384 536.019 117.87V173H511.717ZM621.257 173L581.893 64.5472H606.094L633.408 143.175L660.622 64.5472H684.923L645.559 173H621.257ZM748.329 176.013C737.483 176.013 727.877 173.669 719.508 168.983C711.14 164.23 704.613 157.602 699.927 149.1C695.307 140.531 692.998 130.824 692.998 119.979C692.998 108.263 695.274 98.0203 699.826 89.2503C704.378 80.4134 710.705 73.5849 718.805 68.7648C726.973 63.9447 736.345 61.5346 746.923 61.5346C758.036 61.5346 767.542 64.1455 775.442 69.3673C783.408 74.5891 789.266 82.0201 793.015 91.6604C796.831 101.301 798.304 112.581 797.434 125.502H773.433V116.665C773.366 108.765 772.429 102.338 770.622 97.3843C768.814 92.4303 766.036 88.7482 762.287 86.3382C758.605 83.9281 753.818 82.7231 747.927 82.7231C741.366 82.7231 735.91 84.0955 731.559 86.8403C727.207 89.5181 723.96 93.5349 721.818 98.8906C719.676 104.246 718.605 110.874 718.605 118.774C718.605 126.138 719.676 132.397 721.818 137.552C723.96 142.707 727.14 146.623 731.358 149.301C735.642 151.979 740.831 153.318 746.923 153.318C752.814 153.318 757.935 152.012 762.287 149.401C766.638 146.724 769.986 142.874 772.329 137.853L796.229 145.083C793.551 151.51 789.768 157.067 784.881 161.753C780.061 166.372 774.505 169.92 768.212 172.397C761.919 174.808 755.291 176.013 748.329 176.013ZM710.973 125.502V107.225H785.584V125.502H710.973ZM861.911 176.013C853.074 176.013 845.275 174.674 838.513 171.996C831.751 169.251 826.262 165.335 822.044 160.247C817.894 155.092 815.216 148.866 814.011 141.569L838.714 137.753C839.517 141.368 841.023 144.481 843.233 147.092C845.509 149.636 848.354 151.611 851.768 153.017C855.25 154.355 859.199 155.025 863.618 155.025C867.434 155.025 870.714 154.523 873.459 153.519C876.204 152.448 878.279 150.941 879.685 149C881.158 147.058 881.894 144.749 881.894 142.071C881.894 139.46 881.292 137.452 880.087 136.046C878.882 134.573 876.438 133.167 872.756 131.828C869.074 130.489 862.915 128.682 854.279 126.405C845.04 123.995 837.777 121.418 832.488 118.673C827.199 115.861 823.383 112.581 821.04 108.832C818.697 105.016 817.525 100.363 817.525 94.8738C817.525 88.1792 819.266 82.3214 822.747 77.3004C826.295 72.2125 831.283 68.3296 837.71 65.6518C844.136 62.907 851.634 61.5346 860.204 61.5346C868.572 61.5346 876.036 62.8401 882.597 65.451C889.158 68.0619 894.446 71.8108 898.463 76.6979C902.48 81.518 904.957 87.1415 905.894 93.5684L881.191 97.9868C880.723 94.9073 879.618 92.2629 877.877 90.0537C876.137 87.7775 873.794 86.0034 870.848 84.7315C867.969 83.4595 864.555 82.7231 860.605 82.5222C856.856 82.3214 853.542 82.6561 850.664 83.5264C847.785 84.3967 845.542 85.7022 843.936 87.4428C842.396 89.1834 841.626 91.2587 841.626 93.6688C841.626 95.8111 842.329 97.6186 843.735 99.0914C845.208 100.497 847.952 101.937 851.969 103.409C855.986 104.815 862.413 106.623 871.25 108.832C880.02 111.041 886.949 113.585 892.036 116.464C897.191 119.276 900.907 122.656 903.183 126.606C905.526 130.489 906.698 135.276 906.698 140.966C906.698 148.196 904.89 154.456 901.275 159.745C897.727 164.966 892.572 168.983 885.81 171.795C879.116 174.607 871.149 176.013 861.911 176.013ZM992.258 173C980.409 175.276 969.798 175.444 960.425 173.502C951.053 171.561 944.391 166.941 940.442 159.644C938.5 155.962 937.295 152.247 936.827 148.498C936.358 144.682 936.191 139.661 936.324 133.435V128.715V34.4214H960.425V127.309V130.422C960.358 134.774 960.425 138.188 960.626 140.665C960.894 143.075 961.563 145.117 962.634 146.791C964.91 150.473 968.459 152.682 973.279 153.418C978.166 154.088 984.492 153.853 992.258 152.715V173ZM916.642 83.5264V64.5472H992.258V83.5264H916.642Z" fill="#77848B"/>
<circle cx="96.454" cy="96.454" r="96.454" fill="url(#paint0_linear)"/>
<circle cx="96.454" cy="96.454" r="96.454" fill="url(#paint1_radial)"/>
<mask id="mask0" style="mask-type:alpha" maskUnits="userSpaceOnUse" x="0" y="0" width="193" height="193">
<circle cx="96.454" cy="96.454" r="96.454" fill="url(#paint2_linear)"/>
<circle cx="96.454" cy="96.454" r="96.454" fill="url(#paint3_radial)"/>
</mask>
<g mask="url(#mask0)">
<g filter="url(#filter0_f)">
<circle cx="-2.30418" cy="1.03895" r="84.5512" fill="#155E63" fill-opacity="0.25"/>
</g>
<g filter="url(#filter1_f)">
<circle cx="105.095" cy="196.473" r="105.095" fill="#155E63" fill-opacity="0.42"/>
</g>
</g>
<path fill-rule="evenodd" clip-rule="evenodd" d="M8.6291 136.388C22.3294 109.665 50.1526 91.3775 82.247 91.3775C124.811 91.3775 159.863 123.542 164.422 164.892C146.986 182.209 122.969 192.908 96.454 192.908C57.4272 192.908 23.8139 169.73 8.6291 136.388Z" fill="url(#paint4_radial)"/>
<path fill-rule="evenodd" clip-rule="evenodd" d="M8.6291 136.388C22.3294 109.665 50.1526 91.3775 82.247 91.3775C124.811 91.3775 159.863 123.542 164.422 164.892C146.986 182.209 122.969 192.908 96.454 192.908C57.4272 192.908 23.8139 169.73 8.6291 136.388Z" fill="url(#paint5_radial)"/>
<path fill-rule="evenodd" clip-rule="evenodd" d="M192.908 96.454C192.908 149.724 149.724 192.908 96.454 192.908C96.454 139.638 139.638 96.454 192.908 96.454Z" fill="url(#paint6_linear)"/>
<path fill-rule="evenodd" clip-rule="evenodd" d="M82.247 1.03894C78.0772 41.9496 44.0792 74.0353 2.34944 75.1997C11.0132 36.6752 42.7278 6.87283 82.247 1.03894Z" fill="url(#paint7_linear)"/>
<path fill-rule="evenodd" clip-rule="evenodd" d="M82.247 1.03894C78.0772 41.9496 44.0792 74.0353 2.34944 75.1997C11.0132 36.6752 42.7278 6.87283 82.247 1.03894Z" fill="url(#paint8_radial)"/>
</g>
<defs>
<filter id="filter0_f" x="-119.855" y="-116.512" width="235.102" height="235.102" filterUnits="userSpaceOnUse" color-interpolation-filters="sRGB">
<feFlood flood-opacity="0" result="BackgroundImageFix"/>
<feBlend mode="normal" in="SourceGraphic" in2="BackgroundImageFix" result="shape"/>
<feGaussianBlur stdDeviation="16.5" result="effect1_foregroundBlur"/>
</filter>
<filter id="filter1_f" x="-33" y="58.3775" width="276.19" height="276.19" filterUnits="userSpaceOnUse" color-interpolation-filters="sRGB">
<feFlood flood-opacity="0" result="BackgroundImageFix"/>
<feBlend mode="normal" in="SourceGraphic" in2="BackgroundImageFix" result="shape"/>
<feGaussianBlur stdDeviation="16.5" result="effect1_foregroundBlur"/>
</filter>
<linearGradient id="paint0_linear" x1="52.2383" y1="25.4205" x2="159.861" y2="174.549" gradientUnits="userSpaceOnUse">
<stop stop-color="#66FFA3"/>
<stop offset="0.494374" stop-color="#91EF84"/>
<stop offset="1" stop-color="#CDE862"/>
</linearGradient>
<radialGradient id="paint1_radial" cx="0" cy="0" r="1" gradientUnits="userSpaceOnUse" gradientTransform="translate(96.454 96.454) rotate(90) scale(96.454)">
<stop offset="0.635417" stop-color="white" stop-opacity="0"/>
<stop offset="0.807292" stop-color="#F4FFC6" stop-opacity="0.188235"/>
<stop offset="1" stop-color="#ECFFA0" stop-opacity="0.5"/>
</radialGradient>
<linearGradient id="paint2_linear" x1="52.2383" y1="25.4205" x2="159.861" y2="174.549" gradientUnits="userSpaceOnUse">
<stop stop-color="#66FFA3"/>
<stop offset="0.494374" stop-color="#91EF84"/>
<stop offset="1" stop-color="#CDE862"/>
</linearGradient>
<radialGradient id="paint3_radial" cx="0" cy="0" r="1" gradientUnits="userSpaceOnUse" gradientTransform="translate(96.454 96.454) rotate(90) scale(96.454)">
<stop offset="0.635417" stop-color="white" stop-opacity="0"/>
<stop offset="0.807292" stop-color="#F4FFC6" stop-opacity="0.188235"/>
<stop offset="1" stop-color="#ECFFA0" stop-opacity="0.5"/>
</radialGradient>
<radialGradient id="paint4_radial" cx="0" cy="0" r="1" gradientUnits="userSpaceOnUse" gradientTransform="translate(141.124 172.714) rotate(-157.085) scale(124.741 134.391)">
<stop offset="0.334116" stop-color="#5FBE18"/>
<stop offset="0.640886" stop-color="#9DCC1B"/>
<stop offset="1" stop-color="#C9E135"/>
</radialGradient>
<radialGradient id="paint5_radial" cx="0" cy="0" r="1" gradientUnits="userSpaceOnUse" gradientTransform="translate(83.6751 169.581) rotate(87.8737) scale(76.825 89.7727)">
<stop offset="0.539181" stop-color="#6EE138" stop-opacity="0"/>
<stop offset="1" stop-color="#A7FAFF" stop-opacity="0.4"/>
</radialGradient>
<linearGradient id="paint6_linear" x1="160.182" y1="117.892" x2="223.859" y2="228.19" gradientUnits="userSpaceOnUse">
<stop stop-color="#C6D51C"/>
<stop offset="1" stop-color="#40B716"/>
</linearGradient>
<linearGradient id="paint7_linear" x1="42.2982" y1="1.03894" x2="42.2982" y2="75.1997" gradientUnits="userSpaceOnUse">
<stop stop-color="#BDD31C"/>
<stop offset="1" stop-color="#71DB23"/>
</linearGradient>
<radialGradient id="paint8_radial" cx="0" cy="0" r="1" gradientUnits="userSpaceOnUse" gradientTransform="translate(-2.66008 -9.74799) rotate(43.0651) scale(88.4164 95.2559)">
<stop offset="0.65671" stop-color="#23B14B" stop-opacity="0"/>
<stop offset="0.839391" stop-color="#90E2AE" stop-opacity="0.14"/>
<stop offset="1" stop-color="#D0FFE9" stop-opacity="0.47"/>
</radialGradient>
<clipPath id="clip0">
<rect width="1040" height="193" fill="white"/>
</clipPath>
</defs>
</svg>
